<?xml version="1.0" standalone="no"?><!DOCTYPE svg PUBLIC "-//W3C//DTD SVG 1.1//EN" "http://www.w3.org/Graphics/SVG/1.1/DTD/svg11.dtd"><svg t="1761219874643" class="icon" viewBox="0 0 1024 1024" version="1.1" xmlns="http://www.w3.org/2000/svg" p-id="28565" xmlns:xlink="http://www.w3.org/1999/xlink" width="128" height="128"><path d="M128 128h768a42.666667 42.666667 0 0 1 42.666667 42.666667v682.666666a42.666667 42.666667 0 0 1-42.666667 42.666667H128a42.666667 42.666667 0 0 1-42.666667-42.666667V170.666667a42.666667 42.666667 0 0 1 42.666667-42.666667z m42.666667 85.333333v597.333334h682.666666V213.333333H170.666667z m128 341.333334h85.333333v170.666666H298.666667v-170.666666z m170.666666-256h85.333334v426.666666h-85.333334V298.666667z m170.666667 128h85.333333v298.666666h-85.333333v-298.666666z" p-id="28566" fill="#2c2c2c"></path></svg>