<?xml version="1.0" standalone="no"?><!DOCTYPE svg PUBLIC "-//W3C//DTD SVG 1.1//EN" "http://www.w3.org/Graphics/SVG/1.1/DTD/svg11.dtd"><svg t="1747893176665" class="icon" viewBox="0 0 1024 1024" version="1.1" xmlns="http://www.w3.org/2000/svg" p-id="1143" width="24" height="24" xmlns:xlink="http://www.w3.org/1999/xlink"><path d="M682.666667 85.333333H277.333333a128 128 0 0 0-128 128v597.333334a128 128 0 0 0 128 128h469.333334a128 128 0 0 0 128-128V298.666667L682.666667 85.333333z" fill="#53D39C" p-id="1144"></path><path d="M682.666667 85.333333l144 160L874.666667 298.666667h-128a64 64 0 0 1-64-64V85.333333z" fill="#25BF79" p-id="1145"></path><path d="M277.333333 373.333333m21.333334 0l192 0q21.333333 0 21.333333 21.333334l0 21.333333q0 21.333333-21.333333 21.333333l-192 0q-21.333333 0-21.333334-21.333333l0-21.333333q0-21.333333 21.333334-21.333334Z" fill="#25BF79" p-id="1146"></path><path d="M277.333333 501.333333m21.333334 0l426.666666 0q21.333333 0 21.333334 21.333334l0 21.333333q0 21.333333-21.333334 21.333333l-426.666666 0q-21.333333 0-21.333334-21.333333l0-21.333333q0-21.333333 21.333334-21.333334Z" fill="#25BF79" p-id="1147"></path><path d="M277.333333 629.333333m21.333334 0l426.666666 0q21.333333 0 21.333334 21.333334l0 21.333333q0 21.333333-21.333334 21.333333l-426.666666 0q-21.333333 0-21.333334-21.333333l0-21.333333q0-21.333333 21.333334-21.333334Z" fill="#25BF79" p-id="1148"></path><path d="M277.333333 362.666667m21.333334 0l192 0q21.333333 0 21.333333 21.333333l0 21.333333q0 21.333333-21.333333 21.333334l-192 0q-21.333333 0-21.333334-21.333334l0-21.333333q0-21.333333 21.333334-21.333333Z" fill="#FFFFFF" p-id="1149"></path><path d="M277.333333 490.666667m21.333334 0l426.666666 0q21.333333 0 21.333334 21.333333l0 21.333333q0 21.333333-21.333334 21.333334l-426.666666 0q-21.333333 0-21.333334-21.333334l0-21.333333q0-21.333333 21.333334-21.333333Z" fill="#FFFFFF" p-id="1150"></path><path d="M277.333333 618.666667m21.333334 0l426.666666 0q21.333333 0 21.333334 21.333333l0 21.333333q0 21.333333-21.333334 21.333334l-426.666666 0q-21.333333 0-21.333334-21.333334l0-21.333333q0-21.333333 21.333334-21.333333Z" fill="#FFFFFF" p-id="1151"></path></svg>