<?xml version="1.0" standalone="no"?><!DOCTYPE svg PUBLIC "-//W3C//DTD SVG 1.1//EN" "http://www.w3.org/Graphics/SVG/1.1/DTD/svg11.dtd"><svg t="1761136545134" class="icon" viewBox="0 0 1024 1024" version="1.1" xmlns="http://www.w3.org/2000/svg" p-id="55315" xmlns:xlink="http://www.w3.org/1999/xlink" width="102" height="102"><path d="M686.933333 128a214.314667 214.314667 0 0 0 0 85.333333H192.469333l322.133334 284.245334 215.424-192.853334c18.176 22.485333 40.874667 41.216 66.688 54.826667l-281.642667 252.202667L170.666667 307.882667V810.666667h682.666666V379.733333a214.314667 214.314667 0 0 0 85.333334 0V853.333333a42.666667 42.666667 0 0 1-42.666667 42.666667H128a42.666667 42.666667 0 0 1-42.666667-42.666667V170.666667a42.666667 42.666667 0 0 1 42.666667-42.666667h558.933333zM896 298.666667a128 128 0 1 1 0-256 128 128 0 0 1 0 256z" p-id="55316" fill="#2c2c2c"></path></svg>