<?xml version="1.0" standalone="no"?><!DOCTYPE svg PUBLIC "-//W3C//DTD SVG 1.1//EN" "http://www.w3.org/Graphics/SVG/1.1/DTD/svg11.dtd"><svg t="1761136853823" class="icon" viewBox="0 0 1024 1024" version="1.1" xmlns="http://www.w3.org/2000/svg" p-id="19249" data-spm-anchor-id="a313x.search_index.0.i2.7c833a816IWpgO" width="128" height="128" xmlns:xlink="http://www.w3.org/1999/xlink"><path d="M981.333333 405.333333L512 192 42.666667 405.333333l213.333333 97.066667V682.666667c0 82.56 114.56 149.333333 256 149.333333s256-66.773333 256-149.333333v-180.266667l85.333333-38.826667V618.666667h85.333334v-193.92z m-298.666666 166.186667A373.333333 373.333333 0 0 0 512 533.333333a373.333333 373.333333 0 0 0-170.666667 38.186667V512c0-16 60.586667-64 170.666667-64s170.666667 48 170.666667 64zM512 746.666667c-110.08 0-170.666667-48-170.666667-64s60.586667-64 170.666667-64 170.666667 48 170.666667 64-60.586667 64-170.666667 64z m213.333333-318.293334C678.186667 388.693333 600.32 362.666667 512 362.666667s-166.186667 26.026667-212.266667 65.706666L248.96 405.333333 512 285.653333 775.04 405.333333z" p-id="19250" fill="#2c2c2c"></path></svg>