<?xml version="1.0" standalone="no"?><!DOCTYPE svg PUBLIC "-//W3C//DTD SVG 1.1//EN" "http://www.w3.org/Graphics/SVG/1.1/DTD/svg11.dtd"><svg t="1761136445432" class="icon" viewBox="0 0 1024 1024" version="1.1" xmlns="http://www.w3.org/2000/svg" p-id="55042" xmlns:xlink="http://www.w3.org/1999/xlink" width="102" height="102"><path d="M341.632 597.376A194.517333 194.517333 0 0 0 341.333333 608C341.333333 709.632 416.128 810.666667 554.666667 810.666667c101.248 0 193.194667-27.946667 256-66.261334v142.933334C734.336 920.064 644.821333 938.666667 554.666667 938.666667c-234.752 0-341.333333-148.053333-341.333334-330.666667 0-137.856 87.082667-256 210.901334-305.664C364.330667 369.621333 341.333333 441.216 341.333333 469.162667L768 469.333333c0-145.322667-108.714667-256-256-256-213.333333 0-341.376 170.154667-384 255.957334C140.373333 266.112 299.093333 85.333333 512 85.333333c221.866667 0 384 171.946667 384 384v128H341.333333l0.298667 0.042667z" p-id="55043" fill="#2c2c2c"></path></svg>