<?xml version="1.0" standalone="no"?><!DOCTYPE svg PUBLIC "-//W3C//DTD SVG 1.1//EN" "http://www.w3.org/Graphics/SVG/1.1/DTD/svg11.dtd"><svg t="1761136060971" class="icon" viewBox="0 0 1024 1024" version="1.1" xmlns="http://www.w3.org/2000/svg" p-id="27886" xmlns:xlink="http://www.w3.org/1999/xlink" width="102" height="102"><path d="M554.666667 896v85.333333h-85.333334v-85.333333H128a42.666667 42.666667 0 0 1-42.666667-42.666667V170.666667a42.666667 42.666667 0 0 1 42.666667-42.666667h256a170.24 170.24 0 0 1 128 57.770667A170.24 170.24 0 0 1 640 128h256a42.666667 42.666667 0 0 1 42.666667 42.666667v682.666666a42.666667 42.666667 0 0 1-42.666667 42.666667h-341.333333z m298.666666-85.333333V213.333333h-213.333333a85.333333 85.333333 0 0 0-85.333333 85.333334v512h298.666666z m-384 0V298.666667a85.333333 85.333333 0 0 0-85.333333-85.333334H170.666667v597.333334h298.666666z" p-id="27887" fill="#2c2c2c"></path></svg>