<?xml version="1.0" standalone="no"?><!DOCTYPE svg PUBLIC "-//W3C//DTD SVG 1.1//EN" "http://www.w3.org/Graphics/SVG/1.1/DTD/svg11.dtd"><svg t="1761219261650" class="icon" viewBox="0 0 1024 1024" version="1.1" xmlns="http://www.w3.org/2000/svg" p-id="57213" xmlns:xlink="http://www.w3.org/1999/xlink" width="128" height="128"><path d="M708.096 44.373333l270.805333 270.762667a21.333333 21.333333 0 0 1-11.818666 36.181333l-62.890667 9.813334-241.322667-241.322667 9.045334-63.36a21.333333 21.333333 0 0 1 36.181333-12.074667zM196.053333 859.733333c158.805333-142.122667 341.12-184.661333 539.434667-235.52l19.029333-171.434666-183.338666-183.338667-171.434667 19.029333c-50.858667 198.314667-93.397333 380.586667-235.52 539.434667L104.704 768.426667c120.661333-140.8 165.973333-296.661333 226.261333-558.122667l271.530667-30.165333 241.365333 241.365333-30.165333 271.530667c-261.461333 60.330667-417.365333 105.6-558.122667 226.261333L196.053333 859.733333z m225.450667-257.28a85.333333 85.333333 0 1 1 120.661333-120.661333A85.333333 85.333333 0 0 1 421.546667 602.453333z" p-id="57214" fill="#2c2c2c"></path></svg>