<?xml version="1.0" standalone="no"?><!DOCTYPE svg PUBLIC "-//W3C//DTD SVG 1.1//EN" "http://www.w3.org/Graphics/SVG/1.1/DTD/svg11.dtd"><svg t="1761220476896" class="icon" viewBox="0 0 1024 1024" version="1.1" xmlns="http://www.w3.org/2000/svg" p-id="51285" xmlns:xlink="http://www.w3.org/1999/xlink" width="128" height="128"><path d="M768 853.333333H256v85.333334H170.666667v-85.333334H128a42.666667 42.666667 0 0 1-42.666667-42.666666V170.666667a42.666667 42.666667 0 0 1 42.666667-42.666667h768a42.666667 42.666667 0 0 1 42.666667 42.666667v640a42.666667 42.666667 0 0 1-42.666667 42.666666h-42.666667v85.333334h-85.333333v-85.333334zM170.666667 768h682.666666V213.333333H170.666667v554.666667z m384-176.042667V725.333333h-85.333334v-133.376A170.752 170.752 0 0 1 512 256a170.666667 170.666667 0 0 1 42.666667 335.957333zM512 512a85.333333 85.333333 0 1 0 0-170.666667 85.333333 85.333333 0 0 0 0 170.666667z" p-id="51286" fill="#2c2c2c"></path></svg>