<?xml version="1.0" standalone="no"?><!DOCTYPE svg PUBLIC "-//W3C//DTD SVG 1.1//EN" "http://www.w3.org/Graphics/SVG/1.1/DTD/svg11.dtd"><svg t="1761219521217" class="icon" viewBox="0 0 1024 1024" version="1.1" xmlns="http://www.w3.org/2000/svg" p-id="26633" xmlns:xlink="http://www.w3.org/1999/xlink" width="128" height="128"><path d="M725.333333 426.666667V341.333333h-85.333333v85.333334H213.333333V256h597.333334v170.666667h-85.333334zM256 128V42.666667h85.333333v85.333333h555.008c23.381333 0 42.325333 18.986667 42.325334 42.368v683.264a42.666667 42.666667 0 0 1-42.325334 42.368H127.658667A42.368 42.368 0 0 1 85.333333 853.632V170.368A42.666667 42.666667 0 0 1 127.658667 128H256zM170.666667 213.333333v597.333334h682.666666V213.333333H170.666667z m170.666666 554.666667a128 128 0 1 1 0-256 128 128 0 0 1 0 256z" p-id="26634" fill="#2c2c2c"></path></svg>