<?xml version="1.0" standalone="no"?><!DOCTYPE svg PUBLIC "-//W3C//DTD SVG 1.1//EN" "http://www.w3.org/Graphics/SVG/1.1/DTD/svg11.dtd"><svg t="1761219567878" class="icon" viewBox="0 0 1024 1024" version="1.1" xmlns="http://www.w3.org/2000/svg" p-id="27230" xmlns:xlink="http://www.w3.org/1999/xlink" width="128" height="128"><path d="M682.666667 170.666667a42.666667 42.666667 0 0 1 42.666666 42.666666v179.2l222.421334-155.733333a21.333333 21.333333 0 0 1 33.578666 17.493333v515.413334a21.333333 21.333333 0 0 1-33.578666 17.493333L725.333333 631.466667V810.666667a42.666667 42.666667 0 0 1-42.666666 42.666666H85.333333a42.666667 42.666667 0 0 1-42.666666-42.666666V213.333333a42.666667 42.666667 0 0 1 42.666666-42.666666h597.333334z m-42.666667 85.333333H128v512h512V256zM341.333333 341.333333h85.333334v128h128v85.333334H426.624L426.666667 682.666667H341.333333l-0.042666-128H213.333333v-85.333334h128V341.333333z m554.666667 35.882667l-170.666667 119.466667v30.634666l170.666667 119.466667V377.173333z" p-id="27231" fill="#2c2c2c"></path></svg>