<svg width="102" height="102" viewBox="0 0 102 102" fill="none" xmlns="http://www.w3.org/2000/svg">
<path d="M99.1283 24.5746V72.9818H3.51521V24.5746C3.51521 12.7659 13.0877 3.19248 24.8974 3.19248H77.7461C89.5548 3.19348 99.1283 12.7669 99.1283 24.5746Z" fill="#FDF1F2"/>
<path d="M99.1283 72.9818V77.4234C99.1283 89.2331 89.5548 98.8065 77.7461 98.8065H24.8974C13.0877 98.8065 3.51521 89.2331 3.51521 77.4234V72.9818H99.1283Z" fill="#F04D58"/>
<path d="M34.2965 92.4614V80.062H38.9742C39.7969 80.062 40.4265 80.1019 40.8598 80.1806C41.4684 80.2822 41.9794 80.4754 42.3908 80.7603C42.8022 81.0452 43.1338 81.4446 43.3849 81.9576C43.6359 82.4706 43.7614 83.0344 43.7614 83.649C43.7614 84.7038 43.4257 85.5953 42.7553 86.3265C42.084 87.0566 40.8717 87.4222 39.1186 87.4222H35.9381V92.4634H34.2965V92.4614ZM35.9381 85.9569H39.1435C40.2033 85.9569 40.9564 85.7597 41.4016 85.3652C41.8469 84.9708 42.07 84.415 42.07 83.6988C42.07 83.1798 41.9385 82.7356 41.6766 82.367C41.4146 81.9974 41.0689 81.7534 40.6406 81.6359C40.3647 81.5622 39.8537 81.5263 39.1096 81.5263H35.9381V85.9569ZM46.5435 92.4614V80.062H50.8147C51.7789 80.062 52.5151 80.1208 53.0221 80.2393C53.7323 80.4027 54.3389 80.6985 54.8409 81.1279C55.4954 81.6807 55.9845 82.3869 56.3082 83.2465C56.6319 84.1062 56.7943 85.0893 56.7943 86.194C56.7943 87.1353 56.6847 87.97 56.4646 88.6972C56.2444 89.4243 55.9625 90.027 55.6189 90.5031C55.2752 90.9792 54.8987 91.3547 54.4893 91.6277C54.0809 91.9016 53.5869 92.1088 53.0091 92.2492C52.4314 92.3907 51.767 92.4604 51.0169 92.4604H46.5435V92.4614ZM48.184 90.9981H50.8317C51.6495 90.9981 52.2909 90.9224 52.7561 90.77C53.2213 90.6176 53.5918 90.4035 53.8688 90.1276C54.2582 89.7381 54.561 89.2151 54.7782 88.5587C54.9953 87.9023 55.1039 87.1054 55.1039 86.1691C55.1039 84.8722 54.8907 83.8761 54.4654 83.1788C54.0401 82.4825 53.5221 82.0154 52.9135 81.7793C52.4732 81.61 51.766 81.5253 50.7908 81.5253H48.186V90.9981H48.184ZM59.8304 92.4614V80.062H68.1956V81.5253H61.4719V85.3652H67.2911V86.8285H61.4719V92.4614H59.8304Z" fill="white"/>
<path d="M66.966 27.61C70.74 31.282 73.086 36.382 73.086 42.094C73.086 53.11 64.11 62.086 53.094 62.086C41.976 62.086 33 53.11 33 41.992C33 41.176 33 40.462 33.102 39.646C34.326 29.752 42.792 22 53.094 22C58.398 22 63.294 24.142 66.966 27.61Z" fill="#F78B7F"/>
<path d="M63.298 44.28L53.098 54.48L43 44.28H49.018V30H57.28V44.28H63.298Z" fill="white"/>
</svg>
