<svg t="1753961085687" class="icon" viewBox="0 0 1024 1024" version="1.1" xmlns="http://www.w3.org/2000/svg" p-id="6294" width="32" height="32"><path d="M995.17 246.71v485.97H35.29V246.71c0-118.55 96.1-214.66 214.66-214.66h530.56c118.55 0.01 214.66 96.12 214.66 214.66z" fill="#FDF1F2" p-id="6295"></path><path d="M995.17 732.68v44.59c0 118.56-96.11 214.67-214.66 214.67H249.95c-118.56 0-214.66-96.11-214.66-214.67v-44.59h959.88z" fill="#F04D58" p-id="6296"></path><path d="M344.31 928.24V803.76h46.96c8.26 0 14.58 0.4 18.93 1.19 6.11 1.02 11.24 2.96 15.37 5.82 4.13 2.86 7.46 6.87 9.98 12.02 2.52 5.15 3.78 10.81 3.78 16.98 0 10.59-3.37 19.54-10.1 26.88-6.74 7.33-18.91 11-36.51 11h-31.93v50.61h-16.48z m16.48-65.3h32.18c10.64 0 18.2-1.98 22.67-5.94 4.47-3.96 6.71-9.54 6.71-16.73 0-5.21-1.32-9.67-3.95-13.37-2.63-3.71-6.1-6.16-10.4-7.34-2.77-0.74-7.9-1.1-15.37-1.1h-31.84v44.48zM467.26 928.24V803.76h42.88c9.68 0 17.07 0.59 22.16 1.78 7.13 1.64 13.22 4.61 18.26 8.92 6.57 5.55 11.48 12.64 14.73 21.27 3.25 8.63 4.88 18.5 4.88 29.59 0 9.45-1.1 17.83-3.31 25.13-2.21 7.3-5.04 13.35-8.49 18.13-3.45 4.78-7.23 8.55-11.34 11.29-4.1 2.75-9.06 4.83-14.86 6.24-5.8 1.42-12.47 2.12-20 2.12h-44.91z m16.47-14.69h26.58c8.21 0 14.65-0.76 19.32-2.29s8.39-3.68 11.17-6.45c3.91-3.91 6.95-9.16 9.13-15.75 2.18-6.59 3.27-14.59 3.27-23.99 0-13.02-2.14-23.02-6.41-30.02-4.27-6.99-9.47-11.68-15.58-14.05-4.42-1.7-11.52-2.55-21.31-2.55h-26.15v95.1zM600.65 928.24V803.76h83.98v14.69h-67.5V857h58.42v14.69h-58.42v56.55h-16.48z" fill="#FFFFFF" p-id="6297"></path><path d="M500.21 352.29c-6.1 20.03-14.85 41.39-26.78 64.93-5.3 10.28-11.14 20.01-13.26 28.14l2.92-1.09c33.68-13.25 65.5-20.83 88.57-25.16-3.98-2.71-7.69-5.68-10.87-8.65-15.92-13.8-29.71-33.82-40.58-58.17z m171.83 103.08c-4.51 5.13-12.46 8.11-24.13 8.11-20.16 0-53.03-6.22-79.55-20.02-45.61 5.14-79.55 11.36-106.86 20.29-1.33 0.54-2.92 1.08-4.77 1.89-32.88 57.34-57.28 83.05-78.76 83.05-4.24 0-8.49-1.09-11.67-2.98l-12.73-8.39-0.8-1.35c-1.86-4.87-2.39-9.48-1.33-14.61 2.92-14.33 18.03-37.06 49.85-57.35 5.04-3.8 12.99-8.11 23.6-13.25 7.96-14.07 16.44-30.57 25.46-48.7 13.53-27.86 22.01-55.46 28.64-79.26v-0.27c-9.81-32.73-15.65-52.47-5.83-88.46 2.38-10.28 11.14-20.83 20.95-20.83h6.37c6.1 0 11.93 2.16 16.17 6.49 17.5 17.85 9.28 61.41 0.53 97.38-0.53 1.63-0.8 2.98-1.06 3.79 10.61 30.56 25.72 55.19 42.43 69.25 6.89 5.41 14.59 10.82 23.07 15.7 11.93-1.36 23.33-1.9 34.21-1.9 32.88 0 52.77 5.96 60.46 18.66 2.65 4.34 3.98 9.47 3.18 14.89-0.27 6.77-2.66 13-7.43 17.87z m-10.87-19.22c-2.65-2.7-13.26-9.47-50.38-9.47-1.86 0-3.71 0-6.1 2.71 19.36 8.66 38.18 13.8 50.38 13.8 1.86 0 3.45-0.27 5.04-0.54h1.06c1.33-0.54 2.12-0.81 2.39-3.52-0.54-0.82-1.06-1.9-2.39-2.98z m-243.16 39.5c-5.57 3.25-10.08 6.22-12.73 8.39-18.83 17.58-30.76 35.44-32.08 45.71 11.93-4.05 27.57-21.91 44.81-54.1z m80.08-186.93l1.33-1.09c1.86-8.65 2.65-16.23 4.24-22.18l0.8-4.31c2.65-15.43 2.12-23.27-2.39-29.76l-3.98-1.36c-0.53 0.82-1.33 2.17-1.85 3.25-4.51 11.36-4.25 31.11 1.85 55.45z" fill="#F04D58" p-id="6298"></path></svg>