<?xml version="1.0" standalone="no"?><!DOCTYPE svg PUBLIC "-//W3C//DTD SVG 1.1//EN" "http://www.w3.org/Graphics/SVG/1.1/DTD/svg11.dtd"><svg t="1748240289975" class="icon" viewBox="0 0 1024 1024" version="1.1" xmlns="http://www.w3.org/2000/svg" p-id="36525" xmlns:xlink="http://www.w3.org/1999/xlink" width="24" height="24"><path d="M540.3648 86.9376h57.86624v90.99264c109.1072 0.60416 218.3168-1.11616 327.31136 0.512 23.47008-2.23232 41.85088 15.88224 39.49568 39.1168 1.7408 188.85632-0.4096 377.79456 1.00352 566.75328-1.00352 20.41856 1.9968 43.0592-9.79968 61.15328-14.8992 10.71104-34.29376 9.29792-51.74272 10.11712-102.06208-0.512-204.12416-0.3072-306.28864-0.3072v101.09952h-63.46752c-155.58656-28.1088-311.3984-53.78048-467.0464-80.87552-0.1024-235.85792-0.1024-471.68512 0-707.4816 157.4912-26.9824 314.9824-54.48704 472.6784-81.07008z" fill="#DC2E1B" p-id="36526" data-spm-anchor-id="a313x.search_index.0.i1.44c73a81ZwhRVq" class="selected"></path><path d="M115.9168 550.64576V425.05216h38.13376c14.44864 0 23.8592 0.63488 28.24192 1.8944 6.74816 1.88416 12.3904 5.98016 16.93696 12.288 4.53632 6.31808 6.8096 14.46912 6.81984 24.46336 0 7.71072-1.31072 14.1824-3.93216 19.43552-2.29376 4.85376-5.71392 9.10336-9.99424 12.3904a33.28 33.28 0 0 1-12.35968 5.9392c-5.6832 1.19808-13.89568 1.80224-24.63744 1.80224H139.6736v47.38048h-23.7568z m23.7568-104.3456v35.6352h13.0048c9.3696 0 15.62624-0.65536 18.78016-1.96608 3.072-1.2288 5.66272-3.39968 7.424-6.16448 1.83296-2.92864 2.7648-6.31808 2.69312-9.75872 0.1536-4.096-1.18784-8.12032-3.7888-11.3152a16.14848 16.14848 0 0 0-9.53344-5.57056c-2.84672-0.57344-8.5504-0.84992-17.1008-0.84992l-11.4688-0.01024z m85.79072-21.248h43.42784c9.78944 0 17.2544 0.80896 22.39488 2.4064 6.87104 2.1504 13.0048 6.144 17.72544 11.54048a55.58272 55.58272 0 0 1 11.24352 20.33664c2.56 8.02816 3.85024 17.92 3.86048 29.696 0 10.33216-1.20832 19.24096-3.61472 26.71616-2.94912 9.13408-7.14752 16.5376-12.61568 22.20032-4.08576 4.3008-9.64608 7.6288-16.68096 10.0352-5.24288 1.77152-12.25728 2.6624-21.03296 2.65216h-44.70784V425.05216z m23.76704 21.1968v83.18976h17.73568c6.63552 0 11.42784-0.38912 14.37696-1.18784 3.59424-0.89088 6.89152-2.69312 9.5744-5.2224 2.53952-2.4576 4.608-6.5024 6.21568-12.11392 1.59744-5.632 2.4064-13.29152 2.41664-22.99904 0-9.70752-0.79872-17.17248-2.41664-22.3744-1.61792-5.20192-3.86048-9.23648-6.72768-12.11392a22.15936 22.15936 0 0 0-11.008-5.89824c-3.328-0.79872-9.8304-1.20832-19.49696-1.20832l-10.67008-0.06144z m95.17056 104.3968V425.05216h80.65024v21.1968h-56.89344v29.73696h49.11104v21.1968h-49.11104v53.4528h-23.7568zM811.4688 588.68736a22.2208 22.2208 0 0 0-3.072-2.78528c-4.56704-3.4816-13.86496-8.5504-32.2048-12.9536a188.43648 188.43648 0 0 0-5.65248-1.26976c12.16512 9.15456 22.528 14.81728 31.06816 16.7936 5.09952 1.29024 8.21248 0.78848 9.86112 0.2048zM707.13344 403.31264c2.38592-8.41728 4.01408-23.52128 0.5632-26.56256l-0.06144 0.07168c-4.608 6.42048-10.42432 32.79872-8.4992 48.71168 3.65568-6.56384 4.8128-10.9568 7.99744-22.2208z m0.60416 141.50656a209.95072 209.95072 0 0 1-25.94816-51.95776 533.98528 533.98528 0 0 1-44.20608 53.87264c16.65024-1.65888 43.0592-2.6112 70.144-1.91488z" fill="#FFFFFF" p-id="36527"></path><path d="M579.67616 193.20832v365.9776c9.472-2.7136 15.99488-4.096 15.99488-4.096 5.6832-5.9392 5.03808-5.38624 11.84768-12.72832a766.7712 766.7712 0 0 0 60.32384-74.37312c-0.17408-2.38592-6.68672-92.14976 21.58592-104.0896 3.70688-1.536 7.81312-1.8432 11.71456-0.86016 5.16096 1.2288 10.06592 4.58752 12.57472 8.5504 6.37952 10.17856 6.26688 25.04704 1.01376 45.85472-8.33536 32.94208-21.0432 51.28192-21.0432 51.28192s4.03456 40.63232 42.27072 85.74976c17.5616 1.49504 32.6656 3.72736 44.93312 6.656 21.07392 5.05856 33.60768 12.06272 38.2976 21.43232 2.6624 5.30432 3.0208 11.83744-0.1536 19.53792-3.1744 7.71072-6.41024 11.53024-12.288 13.79328-4.90496 1.90464-11.0592 2.02752-18.23744 0.26624-21.46304-5.14048-49.90976-25.66144-68.44416-42.1888-29.96224-2.3552-66.33472-2.62144-108.16512-0.79872-12.43136 13.4144-23.1936 24.15616-32.27648 32.2048v215.7568h338.11456V193.20832H579.67616z" fill="#FFFFFF" p-id="36528" data-spm-anchor-id="a313x.search_index.0.i0.44c73a81ZwhRVq" class="selected"></path></svg>